<svg id="icon-friends" viewBox="-289 382 32 27.1" xmlns="http://www.w3.org/2000/svg" height="47px" width="47px">
    <path fill="#FFFFFF" stroke="#FFFFFF" id="path5" d="M-273 409.1c-4.1 0-6.8-.6-7.9-1.7-.5-.6-.6-1.1-.6-1.3 0-.7.1-2.9.6-3.8.1-.3.5-1 4.5-2.4-1.6-1.4-2.6-4-2.6-7.1 0-4.2 2.3-7 5.9-7.1h.1c3.6.1 5.9 2.8 5.9 7.1 0 3.1-1 5.7-2.6 7.1 4 1.4 4.4 2.1 4.5 2.4.4.9.5 3.1.6 3.8 0 .2 0 .7-.6 1.3-1.1 1.1-3.7 1.7-7.8 1.7zm0-2c5.1 0 6.2-.9 6.4-1.1-.1-1.1-.2-2.3-.3-2.7-.6-.4-2.9-1.3-4.8-1.9l-.7-.2-.1-2 .7-.3c1.7-.6 2.8-3.1 2.8-6.1 0-3.1-1.5-5-3.9-5.1-2.5 0-4 2-4 5.1 0 3 1.1 5.5 2.8 6.1l.7.3-.1 2-.7.2c-1.9.6-4.2 1.5-4.8 1.9-.1.4-.3 1.6-.3 2.7.1.2 1.3 1.1 6.3 1.1z" class="st0"/>
    <path fill="#FFFFFF" stroke="#FFFFFF" opacity="0.6" id="path9" d="M-257 402.4c0-.7-.1-2.9-.6-3.8-.1-.3-.5-1-4.5-2.4 1.6-1.4 2.6-4 2.6-7.1 0-4.2-2.3-7-5.9-7.1h-.1c-1.9 0-3.5.8-4.5 2.2.6.3 1.2.6 1.8 1 .7-.8 1.6-1.3 2.8-1.3 2.4 0 3.9 2 3.9 5.1 0 3-1.1 5.5-2.8 6.1l-.7.3.1 2 .7.2c1.9.6 4.3 1.5 4.8 1.9.1.4.3 1.6.3 2.7-.2.2-1 .8-3.8 1 .1.6.2 1.2.2 2 2.5-.2 4.2-.8 5-1.6.7-.5.7-1 .7-1.2z" class="st0"/>
    <path fill="#FFFFFF" stroke="#FFFFFF" opacity="0.6" id="path11" d="M-287 402.3c.1-1.1.2-2.3.3-2.7.6-.4 2.9-1.3 4.8-1.9l.7-.2.1-2-.7-.3c-1.6-.6-2.8-3.1-2.8-6.1 0-3.1 1.5-5 4-5.1 1.2 0 2.1.5 2.8 1.3.5-.4 1.1-.8 1.8-1-1-1.4-2.6-2.2-4.5-2.2h-.1c-3.6 0-5.9 2.8-5.9 7.1 0 3.1 1 5.7 2.6 7.1-4 1.4-4.4 2.1-4.5 2.4-.4.9-.5 3.1-.6 3.8 0 .2 0 .7.6 1.3.8.9 2.5 1.4 5.1 1.6 0-.7.1-1.4.2-2-2.9-.3-3.7-.9-3.9-1.1z" class="st0"/>
</svg>
